<svg t="1592352656233" class="icon" viewBox="0 0 1024 1024" version="1.1" xmlns="http://www.w3.org/2000/svg" p-id="2604" width="128" height="128"><path d="M512 128c211.2 0 384 172.8 384 384s-172.8 384-384 384-384-172.8-384-384 172.8-384 384-384m0-64C262.4 64 64 262.4 64 512s198.4 448 448 448 448-198.4 448-448-198.4-448-448-448z" fill="#ffffff" p-id="2605"></path><path d="M320 512m-32 0a32 32 0 1 0 64 0 32 32 0 1 0-64 0Z" fill="#ffffff" p-id="2606"></path><path d="M704 512m-32 0a32 32 0 1 0 64 0 32 32 0 1 0-64 0Z" fill="#ffffff" p-id="2607"></path><path d="M512 320m-32 0a32 32 0 1 0 64 0 32 32 0 1 0-64 0Z" fill="#ffffff" p-id="2608"></path><path d="M512 704m-32 0a32 32 0 1 0 64 0 32 32 0 1 0-64 0Z" fill="#ffffff" p-id="2609"></path><path d="M320 480h384v64H320z" fill="#ffffff" p-id="2610"></path><path d="M480 320h64v384h-64z" fill="#ffffff" p-id="2611"></path></svg>