<svg t="1591944465626" class="icon" viewBox="0 0 1024 1024" version="1.1" xmlns="http://www.w3.org/2000/svg" p-id="7840" width="128" height="128"><path d="M215.209 158.769L107.722 534.974A304.633 304.633 0 0 0 96 618.667V864c0 17.673 14.327 32 32 32 17.673 0 32-14.327 32-32V636.211h192V864c0 17.673 14.327 32 32 32 17.673 0 32-14.327 32-32V620.993c0-29.849-4.16-59.553-12.36-88.254l-106.848-373.97C291.588 140.556 274.941 128 256 128c-18.941 0-35.588 12.556-40.791 30.769zM352 576H160l96-336 96 336zM640 832h-96V160c0-17.673-14.327-32-32-32-17.673 0-32 14.327-32 32v672c0 35.346 28.654 64 64 64h96c17.673 0 32-14.327 32-32 0-17.673-14.327-32-32-32zM896 832h-96V160c0-17.673-14.327-32-32-32-17.673 0-32 14.327-32 32v672c0 35.346 28.654 64 64 64h96c17.673 0 32-14.327 32-32 0-17.673-14.327-32-32-32z" p-id="7841" fill="#ffffff"></path></svg>