<?xml version="1.0" standalone="no"?><!DOCTYPE svg PUBLIC "-//W3C//DTD SVG 1.1//EN" "http://www.w3.org/Graphics/SVG/1.1/DTD/svg11.dtd"><svg t="1590450353750" class="icon" viewBox="0 0 1024 1024" version="1.1" xmlns="http://www.w3.org/2000/svg" p-id="1933" xmlns:xlink="http://www.w3.org/1999/xlink" width="128" height="128"><defs><style type="text/css"></style></defs><path d="M413.538462 78.769231H137.846154C104.369231 78.769231 78.769231 104.369231 78.769231 137.846154v787.692308c0 9.846154 9.846154 19.692308 19.692307 19.692307h78.769231c11.815385 0 19.692308-7.876923 19.692308-19.692307v-118.153847c0-11.815385 7.876923-19.692308 19.692308-19.692307h118.153846c11.815385 0 19.692308 7.876923 19.692307 19.692307v118.153847c0 11.815385 7.876923 19.692308 19.692308 19.692307h59.076923c21.661538 0 39.384615-17.723077 39.384616-39.384615V137.846154c0-33.476923-25.6-59.076923-59.076923-59.076923z m-177.23077 620.307692c0 5.907692-3.938462 9.846154-9.846154 9.846154h-59.076923c-5.907692 0-9.846154-3.938462-9.846153-9.846154v-98.461538c0-5.907692 3.938462-9.846154 9.846153-9.846154h59.076923c5.907692 0 9.846154 3.938462 9.846154 9.846154v98.461538z m0-196.923077c0 5.907692-3.938462 9.846154-9.846154 9.846154h-59.076923c-5.907692 0-9.846154-3.938462-9.846153-9.846154v-98.461538c0-5.907692 3.938462-9.846154 9.846153-9.846154h59.076923c5.907692 0 9.846154 3.938462 9.846154 9.846154v98.461538z m0-196.923077c0 5.907692-3.938462 9.846154-9.846154 9.846154h-59.076923c-5.907692 0-9.846154-3.938462-9.846153-9.846154v-98.461538c0-5.907692 3.938462-9.846154 9.846153-9.846154h59.076923c5.907692 0 9.846154 3.938462 9.846154 9.846154v98.461538z m157.538462 393.846154c0 5.907692-3.938462 9.846154-9.846154 9.846154h-59.076923c-5.907692 0-9.846154-3.938462-9.846154-9.846154v-98.461538c0-5.907692 3.938462-9.846154 9.846154-9.846154h59.076923c5.907692 0 9.846154 3.938462 9.846154 9.846154v98.461538z m0-196.923077c0 5.907692-3.938462 9.846154-9.846154 9.846154h-59.076923c-5.907692 0-9.846154-3.938462-9.846154-9.846154v-98.461538c0-5.907692 3.938462-9.846154 9.846154-9.846154h59.076923c5.907692 0 9.846154 3.938462 9.846154 9.846154v98.461538z m0-196.923077c0 5.907692-3.938462 9.846154-9.846154 9.846154h-59.076923c-5.907692 0-9.846154-3.938462-9.846154-9.846154v-98.461538c0-5.907692 3.938462-9.846154 9.846154-9.846154h59.076923c5.907692 0 9.846154 3.938462 9.846154 9.846154v98.461538zM886.153846 275.692308H610.461538c-33.476923 0-59.076923 25.6-59.076923 59.076923v590.769231c0 9.846154 9.846154 19.692308 19.692308 19.692307h78.769231c11.815385 0 19.692308-7.876923 19.692308-19.692307v-118.153847c0-11.815385 7.876923-19.692308 19.692307-19.692307h118.153846c11.815385 0 19.692308 7.876923 19.692308 19.692307v118.153847c0 11.815385 7.876923 19.692308 19.692308 19.692307h59.076923c21.661538 0 39.384615-17.723077 39.384615-39.384615V334.769231c0-33.476923-25.6-59.076923-59.076923-59.076923z m-177.230769 423.384615c0 5.907692-3.938462 9.846154-9.846154 9.846154h-59.076923c-5.907692 0-9.846154-3.938462-9.846154-9.846154v-98.461538c0-5.907692 3.938462-9.846154 9.846154-9.846154h59.076923c5.907692 0 9.846154 3.938462 9.846154 9.846154v98.461538z m0-196.923077c0 5.907692-3.938462 9.846154-9.846154 9.846154h-59.076923c-5.907692 0-9.846154-3.938462-9.846154-9.846154v-98.461538c0-5.907692 3.938462-9.846154 9.846154-9.846154h59.076923c5.907692 0 9.846154 3.938462 9.846154 9.846154v98.461538z m157.538461 196.923077c0 5.907692-3.938462 9.846154-9.846153 9.846154h-59.076923c-5.907692 0-9.846154-3.938462-9.846154-9.846154v-98.461538c0-5.907692 3.938462-9.846154 9.846154-9.846154h59.076923c5.907692 0 9.846154 3.938462 9.846153 9.846154v98.461538z m0-196.923077c0 5.907692-3.938462 9.846154-9.846153 9.846154h-59.076923c-5.907692 0-9.846154-3.938462-9.846154-9.846154v-98.461538c0-5.907692 3.938462-9.846154 9.846154-9.846154h59.076923c5.907692 0 9.846154 3.938462 9.846153 9.846154v98.461538z" p-id="1934" fill="#ffffff"></path></svg>