<svg t="1597513458536" class="icon" viewBox="0 0 1024 1024" version="1.1" xmlns="http://www.w3.org/2000/svg" p-id="1465" width="128" height="128"><path d="M375.466667 477.866667A170.666667 170.666667 0 0 1 204.8 307.2v-136.533333a34.133333 34.133333 0 0 1 34.133333-34.133334H273.066667a34.133333 34.133333 0 0 0 0-68.266666h-34.133334A102.4 102.4 0 0 0 136.533333 170.666667v136.533333a238.250667 238.250667 0 0 0 103.082667 195.925333A301.056 301.056 0 0 1 341.333333 716.8a238.933333 238.933333 0 1 0 477.866667 0v-38.912a136.533333 136.533333 0 1 0-68.266667 0v38.912a170.666667 170.666667 0 0 1-341.333333 0 301.056 301.056 0 0 1 102.4-213.674667A238.250667 238.250667 0 0 0 614.4 307.2v-136.533333A102.4 102.4 0 0 0 512 68.266667H477.866667a34.133333 34.133333 0 0 0 0 68.266666h34.133333a34.133333 34.133333 0 0 1 34.133333 34.133334v136.533333A170.666667 170.666667 0 0 1 375.466667 477.866667m409.6 136.533333a68.266667 68.266667 0 1 1 0-136.533333 68.266667 68.266667 0 0 1 0 136.533333z" p-id="1466" fill="#ffffff"></path></svg>