<?xml version="1.0" standalone="no"?><!DOCTYPE svg PUBLIC "-//W3C//DTD SVG 1.1//EN" "http://www.w3.org/Graphics/SVG/1.1/DTD/svg11.dtd"><svg t="1590451839915" class="icon" viewBox="0 0 1024 1024" version="1.1" xmlns="http://www.w3.org/2000/svg" p-id="1236" xmlns:xlink="http://www.w3.org/1999/xlink" width="128" height="128"><defs><style type="text/css"></style></defs><path d="M285.951121 127.593296c-52.504641 0-95.694972 43.190331-95.694973 95.694973v574.169833c0 52.504641 43.190331 95.694972 95.694973 95.694973H447.037657v-63.796649H285.951121a31.451748 31.451748 0 0 1-31.898324-31.898324v-574.169833c0-17.926858 13.907669-31.898324 31.898324-31.898324h287.084916v191.389944h191.389945v63.796648h63.796648V337.675659L618.140268 127.593296H285.951121z m350.881565 108.900879L719.321752 318.983241H636.832686V236.494175z m268.392499 274.134197a81.021743 81.021743 0 0 0-57.608374 24.242726l-294.931904 300.099433-44.976637 189.029469 188.901875-44.976637 6.379665-6.252071 293.783565-288.55224a81.8511 81.8511 0 0 0 0.637966-115.790917l-34.131207-34.131206c-15.949162-15.949162-37.002056-23.79615-58.054949-23.668557z m0.318983 63.413868c4.465765 0 8.995327 1.72251 12.631736 5.358919l34.131207 34.131207a17.225095 17.225095 0 0 1-0.127593 25.072082v0.127594l-287.467697 282.236371-70.878076 16.906112 16.778518-70.81428 282.491558-287.4039 0.127594-0.127593a17.225095 17.225095 0 0 1 12.376549-5.486512z" fill="#ffffff" p-id="1237"></path></svg>