<svg t="1610743985205" class="icon" viewBox="0 0 1024 1024" version="1.1" xmlns="http://www.w3.org/2000/svg" p-id="2406" width="84" height="84"><path d="M496.23552 0.35328c29.696-1.09056 59.57632 0.24064 88.84224 5.59616 16.9216 2.94912 33.21856 8.4992 49.6896 13.2352 101.2224 29.92128 202.4448 59.86816 303.6672 89.79968 16.06656 4.608 32.44032 10.40384 45.12256 21.7344 8.81152 7.8592 14.98112 19.19488 14.83776 31.232 0.23552 13.21472-7.11168 25.56928-17.2288 33.58208-13.90592 11.20256-31.29856 16.41472-48.15872 21.248-49.82784 14.7456-99.66592 29.44-149.4784 44.2112-0.1024 33.8688 0.128 67.72736-0.11776 101.59616-0.4864 44.45696-11.9808 88.7808-33.4592 127.66208a271.28832 271.28832 0 0 1-84.2752 92.88704 266.0352 266.0352 0 0 1-115.04128 44.25216c-47.13472 6.26688-95.95392 0.11264-139.80672-18.49856a269.25568 269.25568 0 0 1-100.21888-73.37984c-39.86944-46.3616-63.08864-106.7264-64.65536-167.9872-0.19968-35.49696 0-70.9888-0.09216-106.4704a34243.20512 34243.20512 0 0 1-58.85952-17.42848c-0.1024 33.15712 0.03584 66.3296-0.07168 99.50208 0.01536 7.92064-3.34848 15.84128-9.43616 20.94592-7.9104 6.912-19.968 8.40704-29.3376 3.71712-8.82176-4.1984-14.94016-13.66528-14.91968-23.51104 0.03584-38.85056 0.0256-77.69088 0.01024-116.54144-14.1824-4.17792-28.35456-8.38144-42.52672-12.55936-14.24896-4.07552-28.58496-9.09312-40.61696-18.0224-8.3968-6.144-15.31904-14.79168-18.03264-24.99584-3.15392-11.14624-0.64512-23.48032 5.95968-32.896 10.62912-14.8992 28.13952-22.5792 45.00992-27.9808 110.06976-32.6144 220.17536-65.1264 330.27072-97.69472C440.13056 5.09952 468.224 1.50528 496.2304 0.35328M436.9152 62.976a425662.06464 425662.06464 0 0 0-335.09376 99.11296 1111265.792 1111265.792 0 0 0 335.32928 99.16416c25.25696 6.83008 51.5328 8.67328 77.57824 9.07264 24.76032-0.39936 49.71008-2.11456 73.81504-8.1408 18.39616-5.19168 36.66944-10.80832 55.03488-16.16384 94.5664-27.9808 189.16352-55.93088 283.74528-83.93216-106.50112-31.58528-213.03808-63.0272-319.54944-94.55104-9.06752-2.6368-18.06336-5.55008-27.3152-7.45472-17.0496-3.5072-34.42176-5.20192-51.7888-5.89824-30.7456-0.79872-61.92128 0.77824-91.7504 8.79104M299.58656 282.5216c-0.0256 24.832 0 49.66912-0.0256 74.51648a218.0096 218.0096 0 0 0 13.34272 77.4912c19.58912 53.64224 61.2608 98.60096 113.1008 122.01984 43.02848 19.78368 92.63616 24.3712 138.61376 13.34272 36.352-8.6528 70.2464-27.20768 97.38752-52.98176 32.83456-30.976 55.63392-72.55552 63.92832-117.08416 3.97312-20.18304 4.0448-40.82688 3.87072-61.31712-0.01024-18.70848 0.02048-37.4272-0.01024-56.12544-40.64768 12.77952-81.28 25.6-121.92256 38.38464-22.3232 7.2448-45.71136 10.6496-69.07904 12.1088-29.2352 1.68448-58.72128 0.52224-87.58272-4.64384-20.8128-3.59936-40.60672-11.136-60.7744-17.18272-30.2848-9.4976-60.5696-19.05664-90.84928-28.52864zM152.5248 406.54848c9.00096-2.67264 19.2768-0.17408 26.0352 6.4 5.14048 5.1968 10.4192 10.28608 15.41632 15.616 9.1648 10.39872 8.21248 27.78112-1.98656 37.14048-4.6848 4.62336-9.23648 9.37984-13.96224 13.95712-8.67328 8.16128-22.90176 9.25184-32.7424 2.59072-6.22592-4.48512-11.01824-10.63936-16.62976-15.84128-6.13376-5.64224-9.69216-14.04928-8.93952-22.4256 0.37888-7.73632 4.67456-14.6432 10.31168-19.67104 7.04512-6.4 12.8-15.2576 22.49728-17.7664z" p-id="2407"></path><path d="M754.51392 604.65664c7.3728-1.49504 15.2832 0.45056 21.26848 5.02784 53.50912 39.97696 98.1248 91.60704 131.4048 149.64736 41.3184 71.936 65.25952 153.68704 70.66624 236.54912 0.84992 11.42784-6.6816 22.61504-17.32608 26.45504-5.46816 2.0992-11.4176 1.60768-17.14688 1.62816H95.95392c-4.5824-0.06656-9.23648 0.34816-13.7472-0.63488-9.86624-2.0992-18.19136-10.39872-20.1984-20.36736-1.20832-5.83168-0.17408-11.78624 0.2048-17.64352 7.35232-87.31136 35.28704-173.056 82.45248-246.82496 30.31552-47.55456 68.5568-90.07104 113.1008-124.50304 4.352-3.28704 8.576-7.0656 13.91616-8.59648 8.08448-2.60096 17.3056-0.9728 24.07936 4.18816 37.64224 28.0832 80.22528 49.63328 125.39904 62.29504a362.24 362.24 0 0 0 146.8416 10.39872c62.9248-8.32512 123.18208-33.89952 174.1824-71.7824 3.61472-2.83136 7.7824-5.0176 12.32896-5.8368M220.12416 725.43232c-56.54528 69.4784-91.68384 155.7504-102.6048 244.74624h804.25984c-7.59808-60.81536-26.24-120.29952-55.46496-174.11072-27.2128-50.08384-63.54944-95.35488-107.58656-131.4048a437.4784 437.4784 0 0 1-94.59712 48.8192c-82.3808 30.6176-174.35648 34.1504-258.80576 9.856-44.40576-12.63104-86.64064-32.73216-124.91264-58.6752-22.08256 18.10944-42.24 38.58432-60.288 60.76928z" p-id="2408"></path><path d="M460.06784 825.14944c2.06336-0.5888 4.20352-0.8192 6.3488-0.8192 35.5328 0.0256 71.0656 0.0256 106.5984-0.01024 8.51456-0.07168 16.83968 4.7872 21.5296 12.29312 5.2736 8.25344 5.9904 19.52768 1.7152 28.43136-3.328 7.424-10.01472 12.98944-17.5616 14.81728-4.0704 1.05984-8.29952 0.67584-12.4416 0.72192-31.744 0.01536-63.47776-0.01024-95.22688 0.01536-4.89472 0.14336-9.97888 0.0256-14.52544-2.14016-9.71264-4.224-16.4352-15.0272-16.1792-26.1632-0.2048-12.42112 8.3968-24.18688 19.74272-27.14624z" p-id="2409"></path></svg>