<svg t="1591767149490" class="icon" viewBox="0 0 1024 1024" version="1.1" xmlns="http://www.w3.org/2000/svg" p-id="4309" width="128" height="128"><path d="M369.92 528.64H261.76c-68.48 0-123.52-55.68-123.52-123.52V296.96c0-68.48 55.68-123.52 123.52-123.52h107.52c68.48 0 123.52 55.68 123.52 123.52v107.52c0.64 68.48-55.04 124.16-122.88 124.16zM261.76 237.44c-32.64 0-59.52 26.88-59.52 59.52v107.52c0 32.64 26.88 59.52 59.52 59.52h107.52c32.64 0 59.52-26.88 59.52-59.52V296.96c0-32.64-26.88-59.52-59.52-59.52H261.76zM369.92 907.52H261.76c-68.48 0-123.52-55.68-123.52-123.52v-107.52c0-68.48 55.68-123.52 123.52-123.52h107.52c68.48 0 123.52 55.68 123.52 123.52v107.52c0.64 67.84-55.04 123.52-122.88 123.52zM261.76 616.32c-32.64 0-59.52 26.88-59.52 59.52v107.52c0 32.64 26.88 59.52 59.52 59.52h107.52c32.64 0 59.52-26.88 59.52-59.52v-107.52c0-32.64-26.88-59.52-59.52-59.52H261.76zM751.36 907.52h-107.52c-68.48 0-123.52-55.68-123.52-123.52v-107.52c0-68.48 55.68-123.52 123.52-123.52h107.52c68.48 0 123.52 55.68 123.52 123.52v107.52c0 67.84-55.68 123.52-123.52 123.52z m-108.16-291.2c-32.64 0-59.52 26.88-59.52 59.52v107.52c0 32.64 26.88 59.52 59.52 59.52h107.52c32.64 0 59.52-26.88 59.52-59.52v-107.52c0-32.64-26.88-59.52-59.52-59.52h-107.52z" fill="#ffffff" p-id="4310"></path><path d="M704.64 535.68c-31.36 0-63.36-12.16-87.68-36.48L540.8 423.68c-48-48-48-126.72 0-174.72L616.96 172.8c48-48 126.72-48 174.72 0l76.16 76.16c48 48 48 126.72 0 174.72l-76.16 76.16c-23.68 24.32-55.68 35.84-87.04 35.84z m0-335.36c-15.36 0-30.72 5.76-42.24 17.28L586.24 293.76c-23.04 23.04-23.04 60.8 0 84.48L662.4 454.4c23.04 23.04 60.8 23.04 84.48 0l76.16-76.16c23.04-23.04 23.04-60.8 0-84.48L746.88 217.6c-11.52-11.52-26.88-17.28-42.24-17.28z" fill="#ffffff" p-id="4311"></path></svg>