<?xml version="1.0" standalone="no"?><!DOCTYPE svg PUBLIC "-//W3C//DTD SVG 1.1//EN" "http://www.w3.org/Graphics/SVG/1.1/DTD/svg11.dtd"><svg t="1590450268996" class="icon" viewBox="0 0 1024 1024" version="1.1" xmlns="http://www.w3.org/2000/svg" p-id="958" xmlns:xlink="http://www.w3.org/1999/xlink" width="128" height="128"><defs><style type="text/css"></style></defs><path d="M739.555556 341.333333h142.222222v512H142.222222V341.333333h142.222222V199.111111h85.333334v56.888889h-28.444445v540.444444h56.888889v-142.222222h227.555556v142.222222h56.888889V256h-28.444445V199.111111h85.333334v142.222222zM455.111111 796.444444h113.777778v-85.333333h-113.777778v85.333333z m-56.888889-312.888888v-56.888889h227.555556v56.888889h-227.555556z m0 113.777777v-56.888889h227.555556v56.888889h-227.555556z m-199.111111-199.111111v398.222222h85.333333V398.222222H199.111111z m540.444445 0v398.222222h85.333333V398.222222h-85.333333z" fill="#ffffff" p-id="959"></path><path d="M483.555556 199.111111V142.222222h56.888888v56.888889h56.888889v56.888889h-56.888889v56.888889h-56.888888V256h-56.888889V199.111111z" fill="#ffffff" p-id="960"></path></svg>