<svg t="1597538868111" class="icon" viewBox="0 0 1024 1024" version="1.1" xmlns="http://www.w3.org/2000/svg" p-id="4645" width="128" height="128"><path d="M534.4 945.7c-54.6 0-107.5-10.7-157.4-31.8-48.1-20.4-91.4-49.5-128.5-86.6s-66.3-80.4-86.6-128.5c-21.1-49.9-31.8-102.8-31.8-157.4 0-76.9 21.7-151.7 62.7-216.3 9.5-14.9 29.2-19.3 44.2-9.9 14.9 9.5 19.3 29.2 9.9 44.2-34.5 54.4-52.7 117.3-52.7 182 0 90.9 35.4 176.4 99.7 240.6 64.3 64.3 149.7 99.7 240.6 99.7S710.7 846.3 775 782c64.3-64.3 99.7-149.7 99.7-240.6S839.3 365 775 300.8c-64.3-64.3-149.7-99.7-240.6-99.7-40.7 0-80.5 7.1-118.3 21.1-36.5 13.5-70.2 33.1-100.2 58.3-13.5 11.4-33.7 9.6-45.1-4-11.4-13.5-9.6-33.7 4-45.1 35.6-29.9 75.7-53.1 119.1-69.2 44.9-16.6 92.2-25.1 140.5-25.1 54.6 0 107.5 10.7 157.4 31.8 48.1 20.4 91.4 49.5 128.5 86.6s66.3 80.4 86.6 128.5c21.1 49.9 31.8 102.8 31.8 157.4S928 648.9 906.9 698.8c-20.4 48.1-49.5 91.4-86.6 128.5s-80.4 66.3-128.5 86.6c-49.9 21.1-102.9 31.8-157.4 31.8z" fill="#ffffff" p-id="4646"></path><path d="M380.7 659.8v-162h-16.2c-16.8 0-33.6 0.6-50.4 1.8v-34.2c15.6 1.2 32.4 1.8 50.4 1.8h52.2c-1.2 22.8-1.8 46.8-1.8 72v99c10.8-13.2 20.4-25.8 28.8-37.8 6 13.2 13.2 25.2 21.6 36-13.2 15.6-25.5 30.3-36.9 44.1-11.4 13.8-25.5 31.5-42.3 53.1-8.4-10.8-17.4-20.4-27-28.8 14.4-14.3 21.6-29.3 21.6-45z m-25.2-311.5c9.6-7.2 18.6-15.6 27-25.2l54 64.8c-12 8.4-21.6 17.4-28.8 27-20.4-28.7-37.8-50.9-52.2-66.6zM667 359.1c24 0 46.2-0.6 66.6-1.8v34.2c-20.4-1.2-42.6-1.8-66.6-1.8h-45v117h41.4c20.4 0 40.2-0.6 59.4-1.8v34.2c-18-1.2-37.8-1.8-59.4-1.8H622v149.5h50.4c20.4 0 43.8-0.6 70.2-1.8v34.2c-26.4-1.2-49.8-1.8-70.2-1.8H514c-28.8 0-52.8 0.6-72 1.8V685c19.2 1.2 37.8 1.8 55.8 1.8V546.4c0-25.2-0.6-46.2-1.8-63h37.8c-1.2 15.6-1.8 36.6-1.8 63v140.4h54v-297h-32.4c-27.6 0-54 0.6-79.2 1.8v-34.2c25.2 1.2 51.6 1.8 79.2 1.8H667z" fill="#ffffff" p-id="4647"></path></svg>