<?xml version="1.0" standalone="no"?><!DOCTYPE svg PUBLIC "-//W3C//DTD SVG 1.1//EN" "http://www.w3.org/Graphics/SVG/1.1/DTD/svg11.dtd"><svg t="1590450427500" class="icon" viewBox="0 0 1024 1024" version="1.1" xmlns="http://www.w3.org/2000/svg" p-id="2446" xmlns:xlink="http://www.w3.org/1999/xlink" width="128" height="128"><defs><style type="text/css"></style></defs><path d="M128 96v832h352v-128h64v128h352V96H128z m64 64h640v704h-224v-128h-192v128H192V160z m64 64v64h128V224H256z m192 0v64h128V224h-128z m192 0v64h128V224h-128zM256 352v64h128v-64H256z m192 0v64h128v-64h-128z m192 0v64h128v-64h-128zM256 480v64h128v-64H256z m192 0v64h128v-64h-128z m192 0v64h128v-64h-128zM256 608v64h128v-64H256z m192 0v64h128v-64h-128z m192 0v64h128v-64h-128zM256 736v64h128v-64H256z m384 0v64h128v-64h-128z" p-id="2447" fill="#ffffff"></path></svg>